PathFileType	4	(X/Y/Z)	/Users/itak/Documents/Research/Walk-IL/dataset/trc/00476_00167.trc
DataRate	CameraRate	NumFrames	NumMarkers	Units	OrigDataRate	OrigDataStartFrame	OrigNumFrames
100.000000	100.000000	4	53	mm	100.000000	350	560
Frame#	Time	RPSI			LPSI			L3			STRN			T10			C7			CLAV			RBAK			LBAK			LSHO			LUPA			LAEL			LAOL			LWTS			LWPS			LFRA			LIFD			LHPS			LHTS			RSHO			RUPA			RAEL			RAOL			RWTS			RWPS			RFRA			RIFD			RHTS			RHPS			RBHD			LFHD			RFHD			LBHD			LHIP			RHIP			RASI			LASI			LKNE			LTHI			LANK			LTIP			LTOE			LMT1			LMT5			LHEE			RKNE			RTHI			RANK			RTIP			RTOE			RMT1			RMT5			RHEE			
		X1	Y1	Z1	X2	Y2	Z2	X3	Y3	Z3	X4	Y4	Z4	X5	Y5	Z5	X6	Y6	Z6	X7	Y7	Z7	X8	Y8	Z8	X9	Y9	Z9	X10	Y10	Z10	X11	Y11	Z11	X12	Y12	Z12	X13	Y13	Z13	X14	Y14	Z14	X15	Y15	Z15	X16	Y16	Z16	X17	Y17	Z17	X18	Y18	Z18	X19	Y19	Z19	X20	Y20	Z20	X21	Y21	Z21	X22	Y22	Z22	X23	Y23	Z23	X24	Y24	Z24	X25	Y25	Z25	X26	Y26	Z26	X27	Y27	Z27	X28	Y28	Z28	X29	Y29	Z29	X30	Y30	Z30	X31	Y31	Z31	X32	Y32	Z32	X33	Y33	Z33	X34	Y34	Z34	X35	Y35	Z35	X36	Y36	Z36	X37	Y37	Z37	X38	Y38	Z38	X39	Y39	Z39	X40	Y40	Z40	X41	Y41	Z41	X42	Y42	Z42	X43	Y43	Z43	X44	Y44	Z44	X45	Y45	Z45	X46	Y46	Z46	X47	Y47	Z47	X48	Y48	Z48	X49	Y49	Z49	X50	Y50	Z50	X51	Y51	Z51	X52	Y52	Z52	X53	Y53	Z53	

351	3.5	427.3228759765625	964.19580078125	-422.3964233398438	416.5833435058594	960.995361328125	-280.1257934570312	382.6811218261719	1075.461181640625	-351.2992553710938	66.09970855712891	1204.083374023438	-364.5603332519531	363.6314697265625	1194.615478515625	-332.7936706542969	240.0322875976562	1441.451416015625	-353.882080078125	76.66716003417969	1322.554077148438	-361.0215454101562	336.8211059570312	1335.591674804688	-437.8072814941406	268.5156555175781	1402.112670898438	-248.8815765380859	152.7678985595703	1402.578491210938	-185.8686828613281	162.0742797851562	1287.091674804688	-84.385986328125	151.0759429931641	1068.805419921875	-52.95959854125977	246.0249328613281	1059.56787109375	-93.11431884765625	75.23394775390625	876.4203491210938	-137.0171661376953	111.9710464477539	854.64306640625	-74.27346038818359	126.1134490966797	981.2481689453125	-57.92628860473633	69.20094299316406	715.2506103515625	-134.8256683349609	104.5616073608398	779.5956420898438	-79.11669921875	59.25627899169922	789.8505859375	-134.62939453125	202.9329376220703	1400.207397460938	-519.0899047851562	241.49951171875	1348.318969726562	-590.4625854492188	305.979248046875	1078.635009765625	-672.2572021484375	351.90625	1058.756958007812	-625.8389892578125	198.7771453857422	872.5541381835938	-658.6012573242188	272.0219421386719	861.21923828125	-707.3438110351562	305.2535095214844	1020.697937011719	-687.178466796875	195.0125732421875	718.2926025390625	-684.2744140625	181.8891143798828	778.2457275390625	-682.7821044921875	253.4633483886719	775.538818359375	-716.4142456054688	101.5637817382812	1619.41259765625	-453.3211975097656	-33.50374221801758	1585.769165039062	-300.5614013671875	-31.71317100524902	1592.399169921875	-431.2638244628906	113.5217437744141	1620.168212890625	-276.2815856933594	290.0963439941406	841.6538696289062	-176.7085571289062	303.3147583007812	883.1356811523438	-579.9240112304688	207.4249114990234	918.6681518554688	-506.8812866210938	190.6596984863281	869.0626220703125	-255.1744842529297	363.2464599609375	436.7341003417969	-228.8077239990234	304.6380004882812	579.7354125976562	-206.7072296142578	554.9298095703125	58.48059463500977	-219.3096008300781	412.9944458007812	291.1654357910156	-217.3360443115234	394.63427734375	38.08438491821289	-403.1929931640625	469.9059143066406	59.67401504516602	-378.14794921875	410.9776000976562	39.08837127685547	-283.9554748535156	620.6741943359375	87.05362701416016	-254.4819488525391	87.52738189697266	545.1717529296875	-593.6768188476562	210.6191101074219	777.1818237304688	-604.0372314453125	-95.84841918945312	142.016845703125	-643.1412353515625	17.77884483337402	428.0851440429688	-622.8945922851562	-283.6733703613281	230.641845703125	-584.979248046875	-223.3915252685547	207.7493286132812	-551.4317626953125	-219.5615997314453	186.0416564941406	-653.9913330078125	-33.4257926940918	117.456657409668	-602.7476806640625	
352	3.51	421.42822265625	962.4725952148438	-425.9974060058594	412.0097351074219	960.4161376953125	-283.722900390625	377.992431640625	1073.954223632812	-354.8845825195312	62.00199127197266	1203.989501953125	-365.6529541015625	359.5758361816406	1193.356811523438	-336.6145324707031	236.8028259277344	1440.790649414062	-356.8283081054688	73.19020080566406	1322.41015625	-362.2964477539062	332.4610900878906	1334.490112304688	-441.616943359375	266.1753845214844	1401.455200195312	-252.11572265625	151.0669555664062	1402.190551757812	-187.8597564697266	161.4002380371094	1286.54296875	-86.55556488037109	151.0888824462891	1068.024169921875	-55.47126007080078	245.5688934326172	1059.203125	-96.80665588378906	75.96334075927734	874.9608764648438	-137.6622619628906	113.3110656738281	853.5089721679688	-75.69367218017578	126.645378112793	980.2994384765625	-59.9291877746582	70.55352020263672	713.693603515625	-135.2711639404297	106.352897644043	778.3955078125	-80.31275939941406	60.13545989990234	788.2301635742188	-135.1613006591797	198.0475769042969	1399.488647460938	-521.6007080078125	235.6815490722656	1347.425903320312	-593.3778076171875	297.2052001953125	1077.147338867188	-675.5908203125	343.6696166992188	1056.913208007812	-629.9476928710938	187.6945648193359	872.469482421875	-659.656005859375	259.9263000488281	860.1316528320312	-709.7108764648438	295.5401611328125	1019.154174804688	-690.3782958984375	182.5635833740234	717.609375	-684.5442504882812	169.0319671630859	778.4863891601562	-683.4226684570312	240.1598815917969	774.697021484375	-718.2745361328125	97.64276885986328	1619.062744140625	-455.0658569335938	-36.62723541259766	1585.312866210938	-301.6146240234375	-35.50741577148438	1591.909423828125	-432.3480834960938	110.4675903320312	1619.856811523438	-278.1049194335938	286.5188598632812	842.1224975585938	-178.2254028320312	295.631591796875	880.899658203125	-581.8909301757812	200.7224426269531	917.2273559570312	-508.3396606445312	186.1078796386719	868.84130859375	-256.1112365722656	362.1837768554688	437.5211181640625	-228.4555511474609	302.5290222167969	580.1953735351562	-206.6881561279297	554.8633422851562	59.30827331542969	-219.4443206787109	412.4950561523438	292.2608032226562	-216.737060546875	394.2710876464844	38.08600234985352	-403.0869140625	469.2728576660156	60.35929489135742	-378.1259155273438	410.6729736328125	38.94898223876953	-283.8853454589844	620.0787963867188	88.48538208007812	-255.0632934570312	80.07600402832031	543.153564453125	-592.8157958984375	202.8663330078125	775.2777099609375	-605.407470703125	-98.14599609375	138.0382385253906	-639.3301391601562	11.3541202545166	424.8555297851562	-621.2601928710938	-288.5260314941406	223.3549346923828	-584.5147705078125	-228.4110107421875	201.9111480712891	-549.9021606445312	-222.4933624267578	179.8567352294922	-652.4208374023438	-36.10345840454102	114.3498153686523	-597.8335571289062	
353	3.52	415.098388671875	960.8175659179688	-429.6192932128906	407.0837097167969	959.902099609375	-287.3554382324219	372.9224853515625	1072.398193359375	-358.5135192871094	57.695556640625	1204.007690429688	-366.7700805664062	355.2707824707031	1192.051391601562	-340.5254211425781	233.4703674316406	1440.124267578125	-359.8768005371094	69.54505920410156	1322.375610351562	-363.6528015136719	327.9314270019531	1333.311157226562	-445.47900390625	263.7170715332031	1400.80078125	-255.4605560302734	149.2672119140625	1401.903686523438	-189.9602813720703	160.5869293212891	1286.13232421875	-88.80315399169922	150.9357757568359	1067.384033203125	-58.04596328735352	244.9116058349609	1058.963256835938	-100.5423965454102	76.54815673828125	873.6209716796875	-138.4141693115234	114.4889450073242	852.5220947265625	-77.18761444091797	127.0200424194336	979.4995727539062	-62.00720977783203	71.84169769287109	712.2718505859375	-135.8662261962891	108.0002899169922	777.3297119140625	-81.62070465087891	60.91428756713867	786.7351684570312	-135.825927734375	193.0833587646484	1398.808349609375	-524.1922607421875	229.7969818115234	1346.566528320312	-596.3284301757812	288.4419250488281	1075.693237304688	-678.8613891601562	335.40673828125	1055.139526367188	-633.9293212890625	176.7244110107422	872.4197998046875	-660.6697387695312	247.9580535888672	859.1117553710938	-711.9395751953125	285.8465576171875	1017.658264160156	-693.4862060546875	170.7600555419922	716.7208251953125	-684.5921020507812	156.3731536865234	778.7736206054688	-684.0391845703125	227.0120239257812	773.9215698242188	-719.9803466796875	93.67546844482422	1618.783325195312	-456.934814453125	-39.79190444946289	1584.961547851562	-302.779541015625	-39.34188842773438	1591.50244140625	-433.5519409179688	107.3689422607422	1619.643798828125	-280.0507507324219	282.6855163574219	842.6178588867188	-179.7455444335938	287.6122131347656	878.5596923828125	-583.8114624023438	193.5502014160156	915.6134643554688	-509.6570129394531	181.2508544921875	868.6378173828125	-256.9787902832031	360.8617858886719	438.31689453125	-228.1076812744141	300.1799621582031	580.6870727539062	-206.6540069580078	554.772705078125	60.24605178833008	-219.6045227050781	411.8518371582031	293.4061279296875	-216.1164398193359	393.9124450683594	38.0859375	-402.9741821289062	468.6203002929688	61.02828216552734	-378.1206665039062	410.3772583007812	38.81056976318359	-283.8250122070312	619.4110107421875	90.09679412841797	-255.6943359375	73.12090301513672	540.6080932617188	-592.06494140625	195.0533142089844	773.04833984375	-606.779052734375	-99.63484954833984	133.1416931152344	-635.4849243164062	5.530895233154297	421.0018310546875	-619.647705078125	-292.2134399414062	215.2345123291016	-583.3900756835938	-232.1513214111328	195.2395172119141	-547.9654541015625	-224.6421813964844	172.6568603515625	-650.3142700195312	-37.78415679931641	110.5054168701172	-593.0872192382812	
354	3.53	408.3437194824219	959.2301025390625	-433.2527465820312	401.7921142578125	959.4308471679688	-291.0213317871094	367.4633178710938	1070.79248046875	-362.1918334960938	53.18131637573242	1204.123291015625	-367.9169311523438	350.7099609375	1190.684326171875	-344.5290832519531	230.0249328613281	1439.435913085938	-363.0298461914062	65.71795654296875	1322.432373046875	-365.0890502929688	323.2197265625	1332.03271484375	-449.3941650390625	261.1322937011719	1400.129638671875	-258.9212646484375	147.3678436279297	1401.704223632812	-192.1746826171875	159.6328125	1285.85498046875	-91.12428283691406	150.6188201904297	1066.8798828125	-60.67693328857422	244.0515747070312	1058.837036132812	-104.3263702392578	76.91382598876953	872.395751953125	-139.3200836181641	115.4865570068359	851.6756591796875	-78.74565887451172	127.2293090820312	978.8408813476562	-64.14929962158203	73.03962707519531	710.9828491210938	-136.6100158691406	109.4766387939453	776.3946533203125	-83.03205108642578	61.58034515380859	785.3575439453125	-136.6218566894531	188.0298004150391	1398.159790039062	-526.8716430664062	223.83447265625	1345.721557617188	-599.3204345703125	279.6971740722656	1074.256713867188	-682.07861328125	327.1200256347656	1053.42041015625	-637.7828369140625	165.8774871826172	872.3871459960938	-661.6696166992188	236.1309509277344	858.1282958984375	-714.0406494140625	276.1976318359375	1016.199584960938	-696.5132446289062	159.5350494384766	715.6382446289062	-684.4553833007812	143.9568176269531	779.043212890625	-684.6161499023438	214.0381317138672	773.1788940429688	-721.5408325195312	89.67051696777344	1618.555786132812	-458.935302734375	-42.99260711669922	1584.71923828125	-304.0650939941406	-43.20991897583008	1591.178344726562	-434.8789672851562	104.2389144897461	1619.515747070312	-282.1246643066406	278.5784606933594	843.110595703125	-181.2954254150391	279.3180541992188	876.1505737304688	-585.7020263671875	185.9238128662109	913.833984375	-510.8445739746094	176.0864868164062	868.4298095703125	-257.7886657714844	359.2514953613281	439.0986938476562	-227.7948150634766	297.5703735351562	581.1896362304688	-206.6349182128906	554.636474609375	61.28481674194336	-219.7890472412109	411.0274353027344	294.5752258300781	-215.5108489990234	393.5860290527344	38.083251953125	-402.8621520996094	467.9798889160156	61.64004898071289	-378.1408996582031	410.1048889160156	38.67990493774414	-283.7797241210938	618.66796875	91.87730407714844	-256.34716796875	66.68341827392578	537.5221557617188	-591.41552734375	187.2315826416016	770.4895629882812	-608.1311645507812	-100.4131088256836	127.3896102905273	-631.614990234375	0.2855776250362396	416.562255859375	-618.0536499023438	-294.7711486816406	206.5054016113281	-581.5172729492188	-234.6505126953125	187.8916778564453	-545.5477294921875	-226.087890625	164.6179656982422	-647.6317138671875	-38.57491302490234	105.951904296875	-588.562744140625	
